<?xml version="1.0" encoding="UTF-8" standalone="no"?>
<svg
   xmlns:dc="http://purl.org/dc/elements/1.1/"
   xmlns:cc="http://creativecommons.org/ns#"
   xmlns:rdf="http://www.w3.org/1999/02/22-rdf-syntax-ns#"
   xmlns:svg="http://www.w3.org/2000/svg"
   xmlns="http://www.w3.org/2000/svg"
   xmlns:sodipodi="http://sodipodi.sourceforge.net/DTD/sodipodi-0.dtd"
   xmlns:inkscape="http://www.inkscape.org/namespaces/inkscape"
   inkscape:version="1.0rc1 (09960d6, 2020-04-09)"
   sodipodi:docname="logo-florida.svg"
   id="svg28"
   viewBox="0 0 81.542206 63.853424"
   version="1.1"
   width="135.89688"
   height="106.41705"
   xml:space="preserve"><metadata
     id="metadata34"><rdf:RDF><cc:Work
         rdf:about=""><dc:format>image/svg+xml</dc:format><dc:type
           rdf:resource="http://purl.org/dc/dcmitype/StillImage" /><dc:title></dc:title></cc:Work></rdf:RDF></metadata><defs
     id="defs32" /><sodipodi:namedview
     inkscape:current-layer="svg28"
     inkscape:window-maximized="0"
     inkscape:window-y="23"
     inkscape:window-x="0"
     inkscape:cy="103.85775"
     inkscape:cx="94.798308"
     inkscape:zoom="1.556542"
     scale-x="0.60003"
     fit-margin-bottom="0"
     fit-margin-right="0"
     fit-margin-left="0"
     fit-margin-top="0"
     showgrid="false"
     id="namedview30"
     inkscape:window-height="672"
     inkscape:window-width="1390"
     inkscape:pageshadow="2"
     inkscape:pageopacity="0"
     guidetolerance="10"
     gridtolerance="10"
     objecttolerance="10"
     borderopacity="1"
     bordercolor="#666666"
     pagecolor="#ffffff" /><g
     transform="matrix(0.48905183,0,0,0.60532462,5.3772408e-5,0)"
     id="g51"><path
       inkscape:connector-curvature="0"
       id="path10"
       d="m 165.94285,22.180134 c -1.13906,-2.445468 -3.4875,-4.24125 -6.44738,-4.9275 -1.19531,-0.278437 -1.92656,-1.331718 -3.0164,-3.030468 -0.75938,-1.182656 -1.53985,-2.404013 -2.70703,-3.382763 -1.61016,-1.3556251 -3.64219,-2.0699998 -5.87138,-2.0699998 -1.59609,0 -3.30469,0.3691407 -4.95,1.0680747 -0.8789,0.3782821 -1.75078,0.8381251 -2.65922,1.4069251 -0.35226,-0.122343 -0.72562,-0.230625 -1.11588,-0.315 -0.82058,-0.176484 -1.7086,-0.26789 -2.64235,-0.26789 -0.93937,0 -1.95469,0.08789 -3.10005,0.272109 -2.11151,0.334688 -5.25307,1.590469 -6.89343,2.287238 l -0.0358,-0.01617 C 115.31464,8.6090625 102.38052,5.785875 89.058265,5.02875 86.946752,3.4509375 84.911233,2.2415625 83.140765,1.5215625 80.66509,0.511875 78.019202,0 75.279827,0 c -4.183594,0 -8.27325,1.2213 -11.648812,3.4607813 -3.411563,-1.5363 -7.337813,-2.374425 -11.194875,-2.374425 -3.005157,0 -5.945625,0.5104687 -8.5005,1.4787 -5.841563,2.2141125 -10.553063,6.9963746 -12.760313,12.8930627 -9.102375,4.3938 -16.691625,10.01925 -21.9931867,16.306312 -6.0086252,7.131375 -9.18225025237,15.217875 -9.18225025237,23.38875 0,9.455625 4.18500005237,18.641813 12.10443695237,26.569125 7.185938,7.180313 17.299688,13.168688 29.25225,17.317121 12.156188,4.217353 26.029125,6.446823 40.12425,6.446823 30.216383,0 57.768753,-10.207131 71.943753,-26.646756 0.14766,-0.142031 2.17969,-2.847656 2.17969,-2.847656 1.96172,-2.597344 3.47344,-5.16375 4.62656,-7.8435 3.53672,-8.232188 3.59297,-17.296313 0.16172,-25.543125 0.41484,-0.549844 0.80859,-1.132763 1.18828,-1.738125 0.83672,-1.357763 1.51172,-2.7837 2.01797,-4.235625 0.54141,-1.555313 0.89297,-3.152813 1.04063,-4.773488 0.14765,-0.197578 0.29531,-0.396562 0.42187,-0.592762 0.37266,-0.565988 0.69609,-1.171407 0.94922,-1.799325 0.99141,-2.414532 0.96328,-5.0688 -0.0703,-7.2855 z"
       fill="#ffffff"
       style="stroke-width:0.5625" /><path
       inkscape:connector-curvature="0"
       id="path12"
       d="m 158.9791,19.304072 c -3.38906,-0.784013 -4.20469,-4.833281 -6.60938,-6.852375 -2.46796,-2.079113 -5.80781,-1.881563 -8.63437,-0.676406 -0.90703,0.388828 -2.06016,1.001925 -3.28568,1.868175 -2.54182,-1.290938 -5.09765,-0.854325 -6.73087,-0.629325 -2.59808,0.356484 -5.88431,1.717762 -7.18088,2.427862 -2.51088,1.373906 -3.20692,2.823075 -4.62307,3.656925 -0.53719,0.313594 -2.19797,1.2663 -5.47661,1.792238 -4.51901,0.724218 -7.713,0.358593 -9.91069,0.27 -6.46031,-0.43875 -13.281754,-1.736719 -15.597567,-2.0538 -1.17,-0.300235 -4.627968,-2.803388 -7.328812,-5.085675 -4.042969,-3.418594 -5.139113,-3.569738 -6.96375,-3.787763 -6.795563,-0.8050501 -9.726188,3.873488 -9.738,3.891825 0,0 -3.185156,-0.137109 -5.016094,0 -3.893175,-2.697862 -8.735062,-3.469219 -12.6765,-2.607862 -1.996875,0.4725 -3.8412,1.398487 -5.290987,2.849062 -0.02813,0.02672 -1.625625,1.565156 -2.498907,4.0338 -0.03375,0.09141 -1.126406,2.936925 -0.625049,6.240938 -5.542763,1.30005 -8.136563,3.107812 -8.686126,3.489637 -1.372499,0.952031 -2.022187,2.546719 -2.224012,3.610575 -0.301641,1.897031 0.302344,3.955781 1.238906,5.704313 -2.03625,0.25875 -4.092862,0.77625 -5.399325,1.323281 -0.875362,0.405703 -3.844012,1.82745 -3.4425,5.830312 0.0035,0.03445 0.115313,1.788075 1.554638,5.5413 -2.0988,1.058907 -4.634325,3.31245 -5.425313,4.07745 -2.167031,2.101613 -2.005312,4.604738 -1.992656,4.785469 0.0021,0.0056 0.0021,0.01193 0.0042,0.01688 0.525234,4.00005 5.842125,8.393625 7.819875,9.669375 2.329425,9.185063 11.228062,14.8095 17.332875,17.141625 0.14625,0.05484 8.287875,3.46995 16.324312,2.707031 4.942238,3.157763 14.515313,2.777344 15.319125,2.781563 4.902188,0.02391 10.528875,-1.124325 10.583438,-1.134113 5.29875,-0.950625 5.435156,-1.984949 5.64975,-3.093074 8.321625,0.786093 15.026629,-1.002657 15.257819,-1.058907 3.2625,-0.767812 3.72307,-1.531406 4.2539,-2.3625 6.9345,0.54211 12.07913,-0.475312 13.69407,-0.890887 4.11963,-1.060988 5.90118,-2.624063 7.01156,-3.900263 3.70969,-0.03167 5.3789,0.02391 6.54525,0.341719 3.41088,0.934425 7.39069,0.103359 8.57193,-0.190547 3.63516,-0.980887 7.41094,-3.119062 10.72238,-6.659437 1.04766,-1.605263 1.97578,-3.275888 2.74219,-5.060363 3.31875,-7.71075 3.3539,-16.33725 0.0844,-24.068812 -0.13359,-0.324844 -0.27422,-0.644063 -0.4289,-0.963282 3.86718,-4.569637 4.4789,-9.24975 4.60546,-10.752187 0.0281,-0.355078 0.0352,-0.476016 0.25313,-0.750938 0.54844,-0.705262 1.05469,-1.610887 1.25859,-2.112187 0.72422,-1.779638 0.7875,-3.834844 -0.0281,-5.595469 -0.94219,-2.0187 -2.88985,-3.273075 -5.01328,-3.765262 z"
       fill="#003087"
       style="stroke-width:0.5625" /><path
       inkscape:connector-curvature="0"
       id="path14"
       d="m 74.772846,3.8394281 c -0.45,0.014063 -0.894375,0.050287 -1.33875,0.096694 -0.135,0.014794 -0.264375,0.034088 -0.399375,0.051638 -0.315,0.040106 -0.624375,0.086569 -0.939375,0.1428187 -0.14625,0.02745 -0.2925,0.057656 -0.444375,0.087919 -0.30375,0.063956 -0.6075,0.136575 -0.91125,0.215325 -0.129375,0.035156 -0.25875,0.063788 -0.388125,0.1010812 -0.849375,0.241875 -1.670625,0.5475375 -2.46375,0.9096188 -0.12375,0.056813 -0.2475,0.1198125 -0.365625,0.18 -0.27,0.1310625 -0.534375,0.266625 -0.793125,0.4123125 -0.140625,0.0765 -0.275625,0.154125 -0.410625,0.232875 -0.2475,0.1485 -0.489375,0.3031875 -0.725625,0.464625 -0.12375,0.081 -0.2475,0.1603125 -0.365625,0.244125 -0.309375,0.2199366 -0.6075,0.4516866 -0.894375,0.6918741 -0.03375,0.027563 -0.0675,0.05175 -0.10125,0.081563 h -0.0056 c -0.185625,-0.00394 -0.376875,-0.00394 -0.5625,0 -5.388775,-3.0510563 -12.73615,-3.769425 -18.39265,-1.6284375 -0.0045,0.00338 -0.0096,0.00563 -0.01294,0.00788 -0.385313,0.14625 -0.763313,0.30825 -1.135688,0.4820625 -0.02419,0.011813 -0.04838,0.025313 -0.07369,0.035438 -0.365062,0.17325 -0.72225,0.3583125 -1.073812,0.5535 -0.963563,0.5349375 -1.87425,1.15875 -2.720813,1.857938 -0.0011,0 -5.62e-4,0.0011 -0.0034,0.0011 -0.847687,0.699187 -1.631812,1.4754376 -2.34225,2.3158126 v 0.0011 c -0.199125,0.233437 -0.388687,0.471938 -0.576,0.713813 -0.01744,0.02419 -0.03544,0.04894 -0.05344,0.07144 -0.171,0.226125 -0.33525,0.455625 -0.494438,0.689063 -0.03487,0.04725 -0.06806,0.09731 -0.100125,0.145125 -0.144,0.21375 -0.2835,0.431437 -0.4185,0.651375 -0.04781,0.07819 -0.09562,0.156938 -0.140625,0.234 -0.11925,0.199125 -0.233437,0.39825 -0.34425,0.599625 -0.06075,0.114187 -0.120375,0.230625 -0.18,0.345375 -0.09112,0.17325 -0.180562,0.348749 -0.264937,0.524812 -0.07762,0.165938 -0.151875,0.333563 -0.225,0.501188 -0.05962,0.135 -0.120938,0.269437 -0.17775,0.405562 -0.104063,0.256499 -0.201375,0.511313 -0.29475,0.774563 -0.02081,0.054 -0.04275,0.11025 -0.06469,0.167625 -0.113062,0.329062 -0.218812,0.66375 -0.316687,1.0035 -18.52084,8.503916 -30.4660897,21.892541 -30.4660897,36.951228 1.687e-4,0.514125 0.017494,1.02375 0.046294,1.535626 0.00703,0.134999 0.016875,0.275624 0.025313,0.410626 0.029531,0.433124 0.068344,0.86625 0.1175063,1.29375 0.010575,0.08438 0.015525,0.16875 0.027506,0.253125 0.061144,0.494999 0.1391063,0.995624 0.2262938,1.490625 0.023231,0.12375 0.049331,0.253124 0.072506,0.376875 0.077344,0.399374 0.1621125,0.798749 0.254925,1.198124 0.0288,0.118125 0.053944,0.230626 0.083475,0.348751 0.1209375,0.489375 0.2532375,0.973125 0.3988688,1.456874 0.030938,0.10125 0.066937,0.2025 0.097875,0.30375 0.1254375,0.399375 0.2593125,0.793125 0.4010625,1.186875 0.046687,0.129375 0.09225,0.25875 0.14175,0.388125 0.17775,0.4725 0.3639375,0.950625 0.5675625,1.4175 0.024188,0.05625 0.051188,0.1125 0.074813,0.168751 0.185625,0.421875 0.3819375,0.838125 0.5855625,1.254374 0.064125,0.135001 0.129375,0.27 0.196875,0.399376 0.2075625,0.41625 0.4235625,0.826875 0.651375,1.231875 0.0315,0.05625 0.060188,0.1125 0.09225,0.16875 0.2559375,0.455625 0.5265,0.905624 0.8043746,1.355625 0.07931,0.12375 0.160313,0.253124 0.239063,0.376874 0.232312,0.36 0.47025,0.72 0.7155,1.080001 0.06863,0.10125 0.136125,0.2025 0.206437,0.298125 0.3054377,0.43875 0.6232497,0.871875 0.9483747,1.299375 0.08494,0.1125 0.17325,0.219374 0.260438,0.331875 0.264375,0.343125 0.536625,0.680625 0.815062,1.018124 0.09788,0.112499 0.194625,0.23625 0.291938,0.34875 0.354375,0.421875 0.718312,0.838125 1.09125,1.24875 0.07425,0.07875 0.151312,0.1575 0.22725,0.241875 0.316687,0.343125 0.64125,0.680625 0.972562,1.02375 0.118125,0.118126 0.237375,0.23625 0.356625,0.359999 0.38925,0.388126 0.784688,0.776251 1.193063,1.158751 0.036,0.03375 0.07313,0.0675 0.109125,0.10125 0.40725,0.3825 0.828,0.75375 1.25325,1.125 0.133875,0.118125 0.27,0.23625 0.404437,0.354375 0.369,0.315 0.74475,0.63 1.12725,0.939374 0.09394,0.07875 0.186188,0.157501 0.2835,0.230625 0.462375,0.37125 0.934313,0.736875 1.414125,1.102501 0.140625,0.10125 0.282375,0.208125 0.423563,0.314999 0.3825,0.28125 0.772312,0.568125 1.163812,0.84375 0.137813,0.09562 0.271688,0.196877 0.410625,0.292502 0.502875,0.348749 1.0125,0.691873 1.531688,1.034999 0.129937,0.08437 0.262687,0.16875 0.395437,0.253125 0.417938,0.269999 0.8415,0.534374 1.272375,0.798749 0.163125,0.106875 0.3285,0.208126 0.492188,0.309375 0.542812,0.326251 1.09125,0.652501 1.649812,0.9675 0.09,0.05063 0.182813,0.101252 0.272813,0.151877 0.488812,0.275625 0.983812,0.551248 1.48275,0.815624 0.181687,0.10125 0.3645,0.196874 0.547312,0.292501 0.502875,0.269999 1.014188,0.52875 1.529438,0.787499 0.09506,0.045 0.188437,0.09562 0.28575,0.140625 0.593437,0.298125 1.198687,0.585 1.808437,0.86625 0.186188,0.09 0.375188,0.174375 0.564188,0.25875 0.486562,0.225 0.97875,0.444375 1.474875,0.658125 0.160312,0.07313 0.32175,0.140625 0.482062,0.21375 0.624375,0.264375 1.256625,0.528751 1.895063,0.781875 0.180562,0.07312 0.365625,0.146249 0.547312,0.219374 0.504563,0.196876 1.010813,0.39375 1.522688,0.585 0.195187,0.07313 0.393187,0.14625 0.590062,0.219375 0.657,0.241875 1.320188,0.478125 1.989563,0.70875 0.150187,0.05062 0.30375,0.10125 0.45675,0.151875 0.550125,0.185625 1.104187,0.37125 1.659937,0.545625 0.221063,0.07313 0.441,0.140625 0.662625,0.208125 0.649688,0.2025 1.302188,0.405 1.963125,0.59625 0.09562,0.02813 0.189563,0.05062 0.284625,0.08437 0.690188,0.196875 1.387125,0.388125 2.088563,0.568125 0.235125,0.06188 0.468562,0.129375 0.703125,0.185625 0.700312,0.185625 1.406812,0.36 2.11725,0.52875 0.07706,0.01687 0.153562,0.03938 0.23175,0.05625 0.991125,0.230626 1.992375,0.449992 3.00375,0.663752 0.12375,0.0225 0.2475,0.0506 0.37125,0.0731 0.984375,0.2025 1.974375,0.38812 2.975625,0.56812 0.174375,0.0281 0.343125,0.0619 0.511875,0.09 0.97875,0.168753 1.96875,0.326253 2.964375,0.472503 0.19125,0.0281 0.388125,0.0563 0.579375,0.0787 0.99,0.14063 1.99125,0.27563 2.9925,0.39375 0.196875,0.0225 0.39375,0.045 0.585,0.0675 1.018125,0.1125 2.041875,0.21375 3.07125,0.30938 0.185625,0.0113 0.365625,0.0281 0.545625,0.0394 1.0575,0.09 2.115,0.16875 3.18375,0.23063 0.14625,0.006 0.298125,0.0113 0.45,0.0225 1.1025,0.0619 2.210625,0.1125 3.33,0.14062 0.09562,0.006 0.19125,0.006 0.28125,0.006 1.18125,0.0337 2.3625,0.0506 3.555,0.0506 3.45375,0 6.8625,-0.135 10.198125,-0.39937 0.03938,0 0.07313,0 0.1125,-0.006 1.4625,-0.11812 2.9025,-0.25875 4.336875,-0.42187 0.230625,-0.0281 0.46125,-0.0506 0.691875,-0.0787 0.7425,-0.09 1.47375,-0.18563 2.204994,-0.28688 0.0844,-0.0112 0.16313,-0.0225 0.2475,-0.0337 0.68063,-0.0956 1.361254,-0.19687 2.036254,-0.30375 0.135,-0.0225 0.27563,-0.045 0.41063,-0.0619 0.315,-0.0506 0.63562,-0.112502 0.95062,-0.163132 0.0844,-0.0169 0.16875,-0.0337 0.25875,-0.045 0.405,-0.0675 0.80438,-0.135 1.20938,-0.20812 0.57937,-0.10688 1.1475,-0.21938 1.72125,-0.33188 0.225,-0.045 0.45,-0.0844 0.66937,-0.12937 0.61313,-0.12375 1.215,-0.25875 1.81688,-0.393757 0.16312,-0.03375 0.32062,-0.0675 0.47812,-0.10125 0.56813,-0.129375 1.125,-0.264375 1.68188,-0.39375 0.21937,-0.05625 0.43875,-0.106875 0.6525,-0.1575 0.44437,-0.1125 0.8775,-0.225 1.31062,-0.343125 0.315,-0.07875 0.63,-0.1575 0.945,-0.241875 0.45563,-0.12375 0.90563,-0.253125 1.35563,-0.3825 0.30375,-0.08437 0.6075,-0.16875 0.90562,-0.25875 0.48375,-0.140625 0.96188,-0.286875 1.44,-0.43875 l 0.77625,-0.23625 c 0.44438,-0.14625 0.88875,-0.2925 1.33313,-0.43875 0.27,-0.09562 0.54562,-0.18 0.81562,-0.275625 0.3825,-0.129375 0.765,-0.27 1.14188,-0.405 0.30937,-0.106875 0.61875,-0.21375 0.92812,-0.331875 0.39375,-0.140625 0.78188,-0.2925 1.17,-0.444375 0.315,-0.118125 0.63,-0.23625 0.93938,-0.36 0.38812,-0.151875 0.77625,-0.315 1.15875,-0.4725 0.2925,-0.118125 0.585,-0.23625 0.86625,-0.354375 0.0394,-0.01687 0.0731,-0.03375 0.1125,-0.05062 l 0.89437,-0.388125 c 0.315,-0.140625 0.63563,-0.275625 0.945,-0.41625 0.38813,-0.174375 0.75938,-0.354375 1.14188,-0.52875 0.25875,-0.12375 0.52875,-0.2475 0.7875,-0.37125 0.32625,-0.1575 0.64687,-0.320625 0.9675,-0.478125 0.30937,-0.1575 0.61875,-0.309375 0.9225,-0.466875 0.36562,-0.18 0.71437,-0.37125 1.06875,-0.5625 0.2475,-0.129375 0.50062,-0.264375 0.74812,-0.399375 0.1575,-0.08438 0.30938,-0.16875 0.46125,-0.25875 0.12938,-0.07313 0.25313,-0.140625 0.3825,-0.21375 0.315,-0.174375 0.63563,-0.354375 0.945,-0.54 0.09,-0.05062 0.17438,-0.10125 0.25875,-0.151875 0.23625,-0.140625 0.46688,-0.275625 0.6975,-0.410625 l 0.7425,-0.455625 c 0.32625,-0.2025 0.64688,-0.405 0.9675,-0.613125 0.23625,-0.151875 0.4725,-0.30375 0.70313,-0.45 0.14625,-0.09562 0.28687,-0.196875 0.4275,-0.2925 0.12937,-0.08437 0.25312,-0.16875 0.37687,-0.253125 0.27,-0.185625 0.54563,-0.37125 0.81,-0.556875 0.29813,-0.208125 0.59063,-0.4275 0.88875,-0.64125 0.21938,-0.1575 0.43313,-0.315 0.64688,-0.466875 0.28687,-0.219375 0.56812,-0.43875 0.84937,-0.658125 0.21938,-0.163125 0.4275,-0.331875 0.64125,-0.495 0.28688,-0.230625 0.5625,-0.461251 0.84375,-0.691875 0.19688,-0.16875 0.39938,-0.331875 0.59063,-0.495 0.28125,-0.23625 0.54562,-0.4725 0.81562,-0.70875 0.17438,-0.163125 0.36563,-0.320625 0.54563,-0.48375 l 0.82688,-0.77625 c 0.23062,-0.225 0.46687,-0.444375 0.69187,-0.66375 -3.1275,1.288125 -7.25625,2.221875 -12.13875,0.883125 -0.0169,-0.0056 -0.0337,-0.0056 -0.0506,-0.0056 v -0.0056 c -12.76313,9.1575 -32.37188,15.01875 -54.360008,15.01875 -38.464875,0 -69.64875,-17.926875 -69.64875,-40.047187 0.0017,-11.795063 8.86725,-22.394813 22.969688,-29.72475 0.03825,-0.02025 0.07481,-0.03769 0.113625,-0.06019 0.714375,-0.367312 1.440562,-0.727312 2.179687,-1.08 0.144,-0.06806 0.288563,-0.136125 0.432563,-0.204187 0.723375,-0.33975 1.45575,-0.672188 2.206125,-0.9945 0.01125,-0.0056 0.02306,-0.01294 0.036,-0.01631 -0.0028,-0.08156 -0.0062,-0.163125 -0.0062,-0.246375 0,-5.265 2.880563,-9.8775 7.441875,-11.60775 4.611938,-1.7521876 10.976625,-0.874687 14.9985,2.012625 1.276875,-0.08719 3.3525,-0.02756 4.303125,0.0051 2.683125,-3.5814386 8.555625,-5.0360631 13.19625,-3.143813 1.15875,0.469688 2.761875,1.78875 4.618125,3.315375 0.72,0.592875 1.468125,1.203188 2.21625,1.7955 10.4175,0.431438 20.199385,2.179125 28.839385,4.955625 2.50875,-0.320625 4.76437,-0.951187 6.54187,-2.041312 0.86625,-0.813375 1.58063,-1.411313 2.15438,-1.839938 C 113.38285,12.054459 100.99098,9.4050839 87.659721,8.7733969 h -0.0056 v -0.00113 c -0.09565,-0.075375 -0.191275,-0.149625 -0.2869,-0.221625 -0.05062,-0.039375 -0.10125,-0.078188 -0.151875,-0.1164375 -0.23625,-0.187875 -0.478125,-0.3684375 -0.714375,-0.5439375 -0.01125,-0.00675 -0.0225,-0.011813 -0.02813,-0.018562 -0.230625,-0.1704375 -0.46125,-0.33525 -0.691875,-0.4955625 -0.01687,-0.014063 -0.03938,-0.025875 -0.05625,-0.039937 -0.219375,-0.1501875 -0.43875,-0.3015 -0.658125,-0.4426875 -0.02813,-0.02025 -0.05625,-0.03825 -0.08438,-0.056812 -0.208125,-0.135 -0.41625,-0.2671875 -0.61875,-0.392625 -0.03938,-0.025875 -0.07875,-0.05175 -0.12375,-0.075375 -0.19125,-0.1164375 -0.376875,-0.228375 -0.568125,-0.33525 -0.05625,-0.032625 -0.1125,-0.064125 -0.174375,-0.09675 -0.16875,-0.095063 -0.3375,-0.189 -0.500625,-0.2745 -0.08437,-0.045563 -0.168745,-0.084938 -0.258745,-0.128813 -0.135,-0.068625 -0.27,-0.138375 -0.405,-0.1996875 -0.219375,-0.1035 -0.433125,-0.1974375 -0.64125,-0.2846813 -1.47375,-0.5976562 -3.015,-0.9678937 -4.573125,-1.1260687 -0.781875,-0.080156 -1.56375,-0.1074375 -2.345625,-0.083531 z M 156.71785,43.595803 c -1.34437,1.312875 -3.53812,3.279375 -5.60813,3.078563 -0.23625,-0.02306 -0.61875,1.446187 -0.73125,1.726875 -0.1575,0.422437 -0.16875,0.56025 -0.0562,1.000125 0.0844,0.3375 0.16313,0.676125 0.225,1.017 0.28125,1.3635 0.43875,2.750062 0.46688,4.142812 0.0337,1.478813 -0.0788,2.958188 -0.315,4.415063 -0.0563,0.343125 -0.12375,0.680625 -0.19688,1.018125 -0.0787,0.37125 0.14063,0.405 0.37125,0.669375 0.30938,0.354375 0.54,0.770625 0.72563,1.209375 0.46687,1.175625 0.57937,2.5425 0.45,3.8025 0.91687,-0.37125 2.115,-0.680625 3.0825,-0.315 1.18125,0.45 1.00687,1.8675 0.88312,2.885625 1.99688,-4.0725 3.1275,-8.544375 3.1275,-13.089375 0,-3.9735 -0.86625,-7.911 -2.42437,-11.561063 z m -63.652504,5.141813 c -0.07313,-0.0034 -0.135,0.0034 -0.163125,0.02419 -0.28125,1.411875 -0.9225,2.773688 -1.67625,3.993188 -0.928125,1.501875 -2.244375,3.22875 -3.909375,3.943125 -1.198125,0.511875 -2.7675,0.19125 -3.04875,-1.249875 -0.151875,-0.777938 0.19125,-1.587375 0.140625,-2.383313 -0.05063,-0.738 -0.2475,-1.575 -0.7875,-2.116687 -0.298125,-0.05625 -0.97875,0.340312 -1.27125,0.440437 -0.32625,0.113625 -0.57375,1.474313 -0.736875,1.842188 -0.658125,1.464187 -1.6425,2.764125 -2.829375,3.844125 -0.916875,0.838125 -1.963125,1.575 -3.110625,2.064375 -1.006875,0.4275 -2.806875,0.585 -3.313125,-0.691875 -0.32625,-0.826875 0.298125,-1.648125 0.545625,-2.401875 0.264375,-0.821813 0.399375,-1.685813 0.410625,-2.546438 0,-0.216 0.09562,-1.040062 -0.07875,-1.215 -0.410625,-0.425812 -1.35,0.907313 -1.603125,1.141313 -1.35,1.253812 -2.88,2.322 -4.528125,3.137625 -1.265625,0.624375 -2.9925,1.456875 -4.4325,1.074375 -0.6075,-0.16875 -1.119375,-0.590625 -1.265625,-1.215 -0.174375,-0.73575 0.196875,-1.351688 0.50625,-1.985063 0.568125,-1.168312 1.04625,-2.475 1.125,-3.787312 0.03937,-0.617063 -2.851875,-1.202063 -3.380625,-1.323563 -0.08438,-0.01744 -0.939375,-0.266062 -0.984375,-0.194625 -0.185625,0.275063 -0.34875,0.565313 -0.500625,0.856688 -0.7425,1.38375 -1.35,2.961562 -1.33875,4.55175 0.0056,0.721687 0.05062,1.364625 -0.57375,1.859625 -0.54,0.433125 -1.276875,0.523125 -1.943437,0.444375 -2.946938,-0.354375 -5.283563,-3.60675 -6.080063,-6.261188 -4.974187,2.410313 -5.054625,9.388688 -4.1265,14.034938 0.48825,-0.09562 1.577813,-0.320625 1.577813,-0.320625 0.01181,-0.703125 0.232875,-1.4625 0.32625,-1.738125 0.5535,-1.659375 1.492312,-3.380625 2.750625,-4.618125 1.179562,-1.153125 3.605625,-1.850625 4.222125,0.241875 0.525375,1.783125 0.523125,3.67875 2.007562,5.023125 0.133313,-0.748125 0.36675,-1.485 0.658125,-2.188125 0.55125,-1.3275 1.47375,-2.93625 2.91375,-3.448125 1.265625,-0.45 2.660625,0.253125 2.6775,1.6875 0.01125,0.9675 -0.06188,1.8225 0.2025,2.784375 0.253125,0.905625 0.64125,1.76625 1.09125,2.5875 0.25875,0.4725 0.534375,0.93375 0.8325,1.378125 0.2475,0.3825 0.3375,0.804375 0.815625,0.601875 0.6525,-0.27 1.186875,-0.77625 1.575,-1.355625 0.405,-0.613125 0.680625,-1.3275 0.77625,-2.05875 0.09,-0.703125 -0.03938,-1.40625 0.185625,-2.0925 0.421875,-1.26 1.67625,-1.220625 2.7,-0.725625 3.110625,1.513125 3.555,5.25375 4.06125,8.29125 2.379375,-0.871875 3.718125,-3.234375 4.415625,-5.540625 0.315,-1.063125 0.523125,-2.16 0.63,-3.2625 0.09,-0.93375 0.03938,-2.278125 1.11375,-2.6775 1.096875,-0.410625 2.413125,0.39375 3.279375,0.99 1.018125,0.691875 1.935,1.53 2.79,2.413125 0.208125,0.21375 0.41625,0.433125 0.61875,0.658125 0.03375,0.03937 1.1475,-0.5175 1.2825,-0.57375 0.855,-0.343125 1.884375,-0.495 2.604375,-1.09125 1.164375,-0.961875 1.8675,-2.4075 2.165625,-3.871125 0.219375,-1.104188 -0.241875,-2.628 0.736875,-3.425625 1.2375,-1.017 2.95875,0.07369 3.999375,0.866812 1.40625,1.070438 2.604375,2.432813 3.616879,3.876188 0.56813,0.79875 1.08,1.636875 1.52438,2.50875 0.19687,0.388125 0.37687,0.781875 0.54562,1.186875 0.12375,0.286875 0.23625,1.02375 0.55688,0.93375 1.62,-0.455625 3.00937,-1.69875 3.97125,-3.04875 0.43875,-0.63 0.8325,-1.3275 1.01812,-2.08125 0.16313,-0.6525 0.46125,-1.351125 1.05188,-1.730813 1.05187,-0.6795 2.35687,0.09113 3.09937,0.882563 1.02938,1.09575 1.485,2.901375 1.8675,4.307625 0.5175,1.9125 0.86625,3.9375 0.78188,5.92875 2.22187,-0.46125 4.32562,-1.56375 6.15937,-2.88 1.71,-1.22625 2.9475,-2.6325 4.06688,-4.3875 -4.0275,-1.479375 -7.74563,-3.583688 -11.70563,-5.221125 -3.52687,-1.461938 -7.29562,-3.078563 -11.10375,-3.633188 -0.46125,-0.0675 -0.5625,-0.027 -0.96187,0.264375 -0.37688,0.27225 -0.77063,0.529313 -1.18125,0.7515 -0.562504,0.3105 -1.192504,0.574313 -1.839384,0.628875 -0.88875,0.07312 -1.6425,-0.359437 -2.03625,-1.151437 -0.16875,-0.349875 -0.275625,-0.734625 -0.320625,-1.119938 -0.0225,-0.18 -0.590625,-0.138937 -0.75375,-0.155812 -0.568125,-0.054 -1.141875,-0.111375 -1.715625,-0.167063 -0.10125,-0.0096 -0.4725,-0.09956 -0.6975,-0.108562 z m 36.877504,11.442375 c 0.39375,1.918125 0.41625,3.94875 0.25875,5.895 2.01938,-0.984375 3.76875,-2.705625 5.16937,-4.4325 -1.82812,-0.421875 -3.63374,-0.916875 -5.42812,-1.4625 z"
       fill="#fa4616"
       style="stroke-width:0.5625" /><path
       inkscape:connector-curvature="0"
       id="path16"
       d="m 75.745971,12.630572 c -2.07,-0.03712 -4.005,0.847125 -5.58,2.147063 1.861875,0.374062 3.695625,0.888187 5.43375,1.656562 0.93375,0.410625 1.83375,0.885375 2.705625,1.40175 0.399375,0.237375 0.57375,0.248062 1.02375,0.24075 0.32625,-0.0034 0.6525,0.0022 0.97875,0.0135 2.23875,0.07369 4.471875,0.334125 6.688125,0.653625 -0.894375,-0.1485 -1.794375,-0.864562 -2.52,-1.357875 -1.1475,-0.781313 -2.25,-1.629 -3.3075,-2.527312 -1.51875,-1.289813 -3.403125,-2.192063 -5.4225,-2.228063 z m 72.635629,0.89775 c -1.95188,-0.03319 -4.0725,0.941625 -5.5575,1.98 0.99,0.704812 1.72125,1.852312 2.48625,2.777062 0.8325,0.997313 1.70437,2.035688 2.86312,2.652188 1.33313,0.7065 2.55938,-0.306563 3.915,-0.05063 0.79313,0.151312 0.4725,0.642375 0.3375,1.191937 -0.09,0.352688 0.50625,0.588938 0.61875,0.934875 0.39375,1.206563 -3.06,0.138375 -3.51562,-0.01406 -1.54688,-0.518625 -2.9925,-1.295438 -4.33125,-2.223563 -1.20937,-0.840937 -2.23313,-1.836562 -3.27375,-2.869875 -0.6975,-0.684 -1.44,-1.3365 -2.33438,-1.738687 -2.73937,-1.22625 -6.3225,-0.509625 -8.98312,0.563625 -2.64938,1.069875 -5.47875,2.6235 -7.48125,4.700812 -1.05188,1.088438 -2.01938,2.203313 -3.22313,3.13875 -0.73687,0.576 -1.53,1.094063 -2.37375,1.504125 -0.63562,0.308813 -1.665,0.8505 -2.39624,0.738 -0.79313,-0.126562 0.0506,-0.680625 0.315,-0.8325 0.46124,-0.261562 0.88875,-0.582187 1.31624,-0.9 0.99563,-0.748125 2.18813,-1.60875 2.84063,-2.694937 -2.07,0.802125 -4.50562,0.882 -6.69375,0.993375 -2.86312,0.147375 -5.75437,0.123187 -8.61187,-0.156938 -2.68313,-0.264375 -5.338134,-0.846 -7.998759,-1.26675 -3.875625,-0.612562 -7.77375,-1.1115 -11.694375,-1.384312 -2.075625,-0.145688 -4.168125,-0.08325 -6.24375,-0.225563 -1.513125,-0.104062 -2.84625,-1.213875 -4.2525,-1.73925 -2.89125,-1.0755 -6.1875,-1.807312 -9.286875,-1.724625 0.945,1.833188 2.840625,3.229313 4.46625,4.417875 0.72,0.525938 1.456875,1.028813 2.21625,1.50075 0.36,0.223875 1.704375,0.808313 1.411875,1.348875 -0.3825,0.7065 -2.07,-0.232875 -2.491875,-0.437062 -1.08,-0.52425 -2.0925,-1.184063 -3.06,-1.896188 -1.98,-1.4535 -3.76875,-3.139875 -5.6475,-4.723312 -2.458125,-2.077875 -5.18625,-3.3165 -8.45775,-3.319875 -2.994187,-0.0068 -6.608812,1.028812 -8.333437,3.674812 -1.613813,2.475563 -1.652063,5.930438 -0.818438,8.682188 0.203063,0.671625 0.474188,1.326937 0.834188,1.931625 0.19125,0.320062 0.749812,1.037812 0.538312,1.452375 -0.340312,0.663187 -2.374875,-1.346063 -2.663437,-1.629 -1.221188,2.068875 -2.360813,4.430812 -2.1555,6.900187 0.099,1.198688 0.53325,2.338313 1.191937,3.33675 0.196313,0.296438 1.447875,1.659938 1.024313,2.095875 -0.398813,0.408938 -1.614375,-0.640125 -1.87875,-0.860062 -0.288563,-0.239063 -1.247625,-1.4535 -1.566563,-1.269 -1.519875,0.865125 -2.935125,1.9125 -4.2165,3.103875 -4.823437,4.4775 -7.570687,10.772437 -8.467312,17.2215 -0.468563,3.36375 -0.624938,6.87375 0.372375,10.153125 0.885937,2.919375 2.558812,5.54625 4.658062,7.75125 4.611938,4.8375 11.07675,7.77375 17.551688,9.10125 3.192187,0.658125 6.328687,0.7875 9.557437,0.36 3.465,-0.45 6.87375,-1.35 10.15875,-2.536875 2.986875,-1.08 5.94,-2.4075 8.578125,-4.179375 0.556875,-0.376875 1.085625,-0.9 1.693125,-1.175625 0.759375,-0.343125 1.659375,-0.36 2.480625,-0.343125 1.3275,0.03375 2.649375,0.1125 3.976875,0.129375 6.5475,0.07875 13.12875,-0.18 19.653754,-0.748125 1.3725,-0.118125 2.75062,-0.25875 4.1175,-0.433125 1.76062,-0.230625 3.40312,-0.18 5.1525,0.05625 3.16687,0.41625 6.39562,0.433125 9.585,0.433125 2.655,0 5.3325,-0.14625 7.9875,-0.03937 1.76062,0.07312 3.51562,0.2475 5.27625,0.365625 1.50187,0.10125 3.05437,0.225 4.55625,-0.0056 3.1725,-0.500625 6.3225,-2.10375 8.74687,-4.179375 1.11375,-0.945 2.15438,-2.08125 2.73375,-3.436875 0.2475,-0.568125 0.97313,-2.7 -0.25312,-2.660625 -0.68625,0.0225 -1.33313,0.466875 -1.94625,0.748125 -0.56813,0.25875 -1.15313,0.489375 -1.74375,0.6975 -1.35563,0.48375 -2.75625,0.860625 -4.1625,1.17 -3.20063,0.6975 -6.46313,1.06875 -9.72563,1.26 -6.15937,0.37125 -12.52125,0.2475 -18.59625,-0.91125 -2.98687,-0.57375 -5.85,-1.839375 -8.62312,-3.0375 -2.70563,-1.17 -5.355,-2.4975 -8.09438,-3.5775 -3.352499,-1.321902 -7.357499,-1.333152 -10.811249,-0.399402 -2.565,0.6975 -4.905,2.17125 -7.18875,3.481875 -2.638125,1.501875 -5.25375,3.07125 -7.936875,4.48875 -1.018125,0.534375 -2.0475,1.08 -3.133125,1.456875 -1.92375,0.669375 -3.999375,0.669375 -5.945625,0.07875 -2.84625,-0.871875 -4.78125,-2.964375 -7.25625,-4.46625 -3.027937,-1.839375 -6.573375,-2.109375 -10.0215,-1.580625 -1.544063,0.241875 -3.08025,0.675 -4.4505,1.434375 -1.373625,0.759375 -2.30625,1.929375 -3.474,2.9475 -1.127813,0.99 -3.2085,2.32875 -4.18275,0.39375 -0.32175,-0.635625 -0.1755,-1.411875 -0.351563,-2.098125 -0.161999,-0.635625 -0.502312,-1.209375 -0.78975,-1.8 -1.504687,-3.054375 -2.267999,-6.5025 -0.88425,-9.759375 0.666563,-1.569375 1.583438,-3.039188 2.57625,-4.422375 0.495,-0.687375 1.016438,-1.357875 1.589625,-1.981688 0.29025,-0.312187 0.917438,-1.068187 1.432688,-0.817312 0.610312,0.291937 -1.243688,2.972812 -1.474313,3.394687 -0.682312,1.256625 -1.356187,2.521688 -1.949062,3.826688 -1.583438,3.47625 0.730125,7.408125 2.219062,10.5075 0.6525,-0.5625 1.313438,-1.125 1.98,-1.67625 0.464625,-0.3825 0.932063,-0.765 1.413,-1.125 0.307125,-0.230625 0.127125,-0.455625 0.04838,-0.81 -0.081,-0.36 -0.154687,-0.72 -0.219937,-1.08 -0.471938,-2.64375 -0.482625,-5.4 0.245812,-7.997063 1.25325,-4.466812 4.717125,-7.89525 9.20025,-9.093375 2.876625,-0.7695 5.708813,-0.495 8.577563,0.13725 1.71,0.374063 3.403125,0.840375 5.068125,1.396125 1.6425,0.547875 3.20625,1.213313 4.91625,1.533938 2.019375,0.379687 4.100625,0.462375 6.15375,0.32625 1.670625,-0.111375 3.436875,-0.28125 5.02875,-0.837 2.37375,-0.828563 4.59,-2.207813 6.7275,-3.509438 2.4075,-1.463625 4.75875,-3.013312 7.11,-4.563562 2.28375,-1.50525 4.46063,-2.943563 7.233754,-3.389063 3.53813,-0.568125 6.795,0.547313 10.13625,1.542375 3.67313,1.090688 7.56,2.246625 11.43,1.699313 2.35688,-0.333563 4.41001,-1.259438 6.51374,-2.325375 2.53688,-1.28475 5.03438,-2.646 7.55439,-3.9555 2.025,-1.050188 4.08938,-2.2185 6.26625,-2.918813 1.54125,-0.491062 3.21187,-0.5355 4.80937,-0.5175 1.94063,0.02137 3.87563,0.2025 5.79376,0.468 2.835,0.395438 5.82186,-2.142562 6.91312,-4.58775 1.35562,-3.07125 -1.56937,-5.054062 -3.99376,-6.216187 -1.62562,-0.779625 -3.03749,-1.564313 -4.13999,-3.052125 -0.61313,-0.835313 -0.91688,-1.859063 -1.63125,-2.629125 -0.8775,-0.9495 -1.99125,-1.332 -3.16125,-1.35225 z M 39.802221,27.312947 c -2.160562,0.596812 -4.580438,1.484437 -6.36975,2.880562 -2.761312,2.140313 -0.28575,6.183 1.180688,8.274938 0.777937,-0.61875 1.497937,-1.323 2.246625,-1.98 0.11925,-0.102938 0.694687,-0.466312 0.701437,-0.626062 0.01744,-0.40725 0.03375,-0.815625 0.05231,-1.22175 0.04725,-1.064813 0.127125,-1.963125 0.435375,-2.998125 0.43875,-1.4805 0.9855,-2.984063 1.753312,-4.329563 z m -6.66,12.404812 c -2.061563,0.07425 -4.22325,0.44325 -6.158812,1.173375 -1.677938,0.633938 -2.550938,2.001375 -2.232563,3.807563 0.309938,1.715063 0.889313,3.43575 1.564313,5.039437 1.528312,-3.782812 3.8205,-7.253999 6.827062,-10.020375 z m -7.651687,12.312 c -1.234688,0.590063 -2.370938,1.431563 -3.446438,2.268 -1.026,0.79875 -2.13525,1.652063 -2.759063,2.816438 -0.847687,1.591875 -0.164812,2.9475 0.822938,4.2525 1.041187,1.366875 2.26125,2.64375 3.633187,3.684375 -0.0135,-0.275625 -0.01744,-0.556875 -0.01744,-0.8325 0,-4.1175 0.51525,-8.2575 1.766813,-12.188813 z m 86.490006,26.369438 c -0.315,0.01125 -0.64125,0.106875 -0.945,0.151875 -0.9,0.135 -1.80563,0.253125 -2.71125,0.354375 -0.61875,0.0675 -1.55813,0 -2.0025,0.545625 -0.3825,0.4725 0.09,0.995625 0.52312,1.198125 3.38063,1.603125 7.48125,1.693125 11.1375,1.305 2.98688,-0.315 6.72188,-0.939375 9.0675,-3.009375 -4.3875,0.09562 -8.8425,0.275625 -13.2075,-0.275625 -0.5175,-0.0675 -1.035,-0.14625 -1.5525,-0.2475 -0.10125,-0.0225 -0.2025,-0.02812 -0.30937,-0.0225 z m -9.56813,1.051875 c -0.23625,0.0056 -0.46687,0.03375 -0.71437,0.05063 -0.86625,0.06188 -1.732504,0.118125 -2.604384,0.16875 -1.940622,0.12375 -3.881248,0.219375 -5.827497,0.2925 -3.69,0.140625 -7.39125,0.2475 -11.08125,0.09 -0.466875,-0.01687 -1.0125,-0.219375 -1.260001,0.241875 -0.12375,0.225 -0.174374,0.478125 -0.146249,0.736875 0.0675,0.714375 0.658125,1.276875 1.209375,1.67625 1.366875,0.99 3.245625,1.60875 4.888125,1.996875 3.487499,0.82125 7.194375,0.79875 10.749375,0.50625 2.626876,-0.21375 5.321256,-0.57375 7.835626,-1.389375 0.63563,-0.2025 2.4075,-0.669375 1.62,-1.54125 -0.7875,-0.860625 -1.60875,-1.65375 -2.64937,-2.210625 -0.42188,-0.225 -0.86063,-0.405 -1.31625,-0.534375 -0.24188,-0.0675 -0.4725,-0.08438 -0.70313,-0.08438 z m -25.948127,4.2075 c -0.793124,-0.0225 -1.524375,0.07312 -2.300625,0.421875 -1.378125,0.613125 -2.79,1.15875 -4.213124,1.648125 -2.851876,0.97875 -5.788126,1.74375 -8.7525,2.30625 4.005,1.591875 8.797499,1.603125 13.038749,1.4175 2.323125,-0.10125 4.640625,-0.331875 6.93,-0.714375 1.175625,-0.196875 2.345625,-0.433125 3.49875,-0.70875 0.781875,-0.196875 2.098125,-0.315 2.7225,-0.849375 0.646875,-0.534375 -1.0125,-0.950625 -1.38375,-1.085625 -0.7875,-0.286875 -1.575,-0.57375 -2.37375,-0.84375 -2.053125,-0.68625 -4.179375,-1.321875 -6.350625,-1.535625 -0.28125,-0.03375 -0.55125,-0.05062 -0.815625,-0.05625 z"
       fill="#046a38"
       style="stroke-width:0.5625" /><path
       inkscape:connector-curvature="0"
       id="path18"
       d="m 75.160971,2.1113157 c -4.066875,0.021994 -8.11125,1.3238437 -11.34,3.7955812 -5.85,-3.0288937 -13.344187,-3.568725 -19.152,-1.3665375 -5.545687,2.101725 -9.95175,6.7500006 -11.811375,12.4481246 -9.178313,4.312688 -16.815375,9.891563 -22.078125,16.138125 -5.6846247,6.743813 -8.6878122,14.364001 -8.6878122,22.02975 -1.125e-4,8.8875 3.9718125,17.555625 11.4885002,25.070625 6.961499,6.963751 16.802437,12.78 28.453499,16.824376 11.936813,4.14 25.572938,6.32813 39.432938,6.32813 30.594374,0 57.195004,-10.575006 70.441874,-26.021255 0.19688,-0.241876 0.36563,-0.466875 0.48376,-0.63 0.0225,-0.02813 0.0394,-0.05625 0.0563,-0.07875 -0.25313,0.208125 -0.50063,0.405 -0.73125,0.568125 -1.35,0.973125 -2.39063,1.321874 -3.76875,2.01375 -0.18563,0.18 -0.315,0.298125 -0.3375,0.320625 -0.13501,0.129375 -0.27563,0.25875 -0.41626,0.393749 -0.25312,0.23625 -0.50062,0.478126 -0.75937,0.708751 -0.006,0.01125 -0.0112,0.01687 -0.0225,0.02812 -0.18,0.163125 -0.37125,0.320625 -0.54563,0.48375 -0.0169,0.0056 -0.0225,0.01687 -0.0337,0.02813 -0.25312,0.225 -0.50062,0.444375 -0.77062,0.669375 0,0.0056 -0.006,0.0056 -0.0112,0.01125 -0.19125,0.163125 -0.39375,0.32625 -0.59063,0.495 -0.0169,0.01125 -0.0337,0.02813 -0.0506,0.03938 -0.25875,0.21375 -0.51188,0.421875 -0.77063,0.63 l -0.0225,0.0225 c -0.21375,0.16875 -0.42187,0.331875 -0.64125,0.495 -0.0113,0.01125 -0.0338,0.02813 -0.0506,0.03938 -0.25875,0.2025 -0.51188,0.399375 -0.77625,0.59625 -0.0112,0.0056 -0.0169,0.01125 -0.0225,0.0225 -0.21375,0.1575 -0.4275,0.309375 -0.64688,0.466875 -0.0337,0.0225 -0.0619,0.05063 -0.10125,0.07313 -0.25875,0.185625 -0.51187,0.376874 -0.77625,0.5625 0,0.0056 -0.0113,0.0056 -0.0113,0.0056 -0.38812,0.275625 -0.7875,0.54 -1.18687,0.809999 -0.135,0.09562 -0.27,0.185626 -0.41063,0.28125 -0.006,0 -0.0112,0.0056 -0.0169,0.01125 -0.23063,0.151875 -0.46688,0.298125 -0.70313,0.45 -0.0506,0.02812 -0.0956,0.06188 -0.14062,0.09562 -0.27,0.16875 -0.53438,0.3375 -0.80438,0.50625 -0.006,0.0056 -0.0169,0.01125 -0.0225,0.01125 -0.24187,0.151875 -0.495,0.30375 -0.7425,0.455625 -0.0506,0.02813 -0.0956,0.05625 -0.14062,0.08437 -0.18563,0.106875 -0.37125,0.21375 -0.55688,0.32625 -0.5175,0.30375 -1.04625,0.6075 -1.58625,0.905625 -0.14625,0.08438 -0.2925,0.16875 -0.44437,0.253125 -0.006,0 -0.0112,0.0056 -0.0169,0.0056 -0.2475,0.135 -0.50062,0.27 -0.74812,0.399375 l -0.21938,0.118125 c -0.28125,0.14625 -0.55687,0.298125 -0.84375,0.444375 h -0.006 c -0.30375,0.1575 -0.61313,0.309375 -0.9225,0.466875 -0.0281,0.01125 -0.0619,0.02813 -0.09,0.045 -0.28688,0.140625 -0.56813,0.28125 -0.855,0.421875 -0.006,0.0056 -0.0169,0.0056 -0.0225,0.01125 -0.25875,0.12375 -0.52875,0.2475 -0.7875,0.37125 -0.0788,0.03375 -0.16313,0.07312 -0.24188,0.1125 -0.2925,0.135 -0.57937,0.27 -0.8775,0.405 -0.006,0.0056 -0.0113,0.0056 -0.0225,0.01125 -0.30937,0.140625 -0.63,0.275625 -0.945,0.41625 -0.0337,0.01687 -0.0731,0.02813 -0.10125,0.045 -0.26437,0.1125 -0.52875,0.230625 -0.79312,0.343125 -0.32625,0.140625 -0.6525,0.27 -0.97875,0.405 -0.0787,0.03375 -0.15188,0.06188 -0.23063,0.09562 -0.30375,0.12375 -0.61312,0.253125 -0.9225,0.376875 h -0.006 c -0.30938,0.12375 -0.62438,0.241875 -0.93938,0.36 l -0.16875,0.0675 c -0.315,0.118125 -0.63562,0.241875 -0.95625,0.36 -0.0113,0.0056 -0.0281,0.01125 -0.045,0.01687 -0.30375,0.118125 -0.61875,0.225 -0.92812,0.331875 -0.0506,0.0225 -0.10125,0.03937 -0.15188,0.05625 -0.32625,0.118125 -0.6525,0.23625 -0.98437,0.34875 h -0.006 c -0.27,0.09562 -0.54562,0.18 -0.81562,0.275625 l -0.32063,0.10125 c -0.3375,0.1125 -0.66937,0.225 -1.0125,0.3375 l -0.77625,0.23625 c -0.12937,0.03937 -0.25312,0.07875 -0.3825,0.118125 -0.34312,0.10125 -0.68625,0.21375 -1.02937,0.315 -0.0113,0.0056 -0.0169,0.0056 -0.0281,0.0056 -0.29812,0.09 -0.60187,0.174375 -0.90562,0.25875 -0.0787,0.0225 -0.1575,0.045 -0.23625,0.0675 -0.35438,0.10125 -0.70875,0.2025 -1.06313,0.298125 -0.0169,0.0056 -0.0394,0.01125 -0.0563,0.01687 -0.30937,0.08437 -0.63,0.163125 -0.945,0.241875 -0.0563,0.01687 -0.11812,0.03375 -0.18,0.05062 -0.36562,0.09563 -0.72562,0.19125 -1.09125,0.28125 -0.0112,0 -0.0225,0.0056 -0.0394,0.01125 -0.21375,0.05062 -0.43313,0.10125 -0.6525,0.1575 -0.16875,0.03938 -0.33188,0.07313 -0.50063,0.118125 -0.37125,0.08437 -0.7425,0.18 -1.11937,0.25875 -0.0169,0.0056 -0.0394,0.01125 -0.0619,0.01687 -0.1575,0.03375 -0.315,0.0675 -0.47812,0.10125 -0.21938,0.05062 -0.43875,0.09562 -0.65813,0.146243 -0.3825,0.0787 -0.75937,0.16313 -1.14187,0.24188 -0.006,0 -0.0112,0 -0.0169,0.006 -0.21937,0.045 -0.44437,0.0844 -0.66937,0.12938 l -0.54,0.10125 c -0.3825,0.0731 -0.765,0.15187 -1.1475,0.225 -0.0113,0 -0.0225,0 -0.0338,0.006 -0.48938,0.09 -0.97875,0.16875 -1.46813,0.25313 -0.30375,0.0506 -0.60187,0.106873 -0.91125,0.157503 -0.0112,0 -0.0281,0 -0.0394,0.006 -0.135,0.0169 -0.27563,0.0394 -0.41063,0.0619 -0.27,0.0394 -0.54,0.0787 -0.81,0.12375 -0.39375,0.0562 -0.781874,0.11812 -1.181254,0.17437 -0.0113,0 -0.0281,0.006 -0.045,0.006 -0.0844,0.0113 -0.16312,0.0225 -0.2475,0.0337 -0.32625,0.045 -0.652495,0.0844 -0.978745,0.12937 -0.399375,0.0506 -0.793125,0.10688 -1.198125,0.15188 -0.0056,0.006 -0.01687,0.006 -0.02813,0.006 -0.230625,0.0281 -0.46125,0.0506 -0.691875,0.0787 -0.2025,0.0169 -0.399375,0.0394 -0.601875,0.0619 -0.388125,0.045 -0.781875,0.09 -1.175625,0.12937 -0.46125,0.0506 -0.9225,0.0844 -1.38375,0.12375 -0.3825,0.0394 -0.759375,0.0731 -1.13625,0.10688 h -0.03938 c -0.03937,0.006 -0.07312,0.006 -0.1125,0.006 -0.433125,0.0337 -0.86625,0.0619 -1.299375,0.0956 -0.37125,0.0225 -0.73125,0.0506 -1.1025,0.0731 -0.5175,0.0337 -1.040625,0.0562 -1.56375,0.0787 -0.3375,0.0169 -0.675,0.0394 -1.0125,0.0506 -0.601875,0.0281 -1.20375,0.0394 -1.81125,0.0563 -0.25875,0.006 -0.523125,0.0169 -0.7875,0.0225 -0.871875,0.0169 -1.74375,0.0225 -2.62125,0.0225 -1.1925,0 -2.37375,-0.0169 -3.555,-0.0506 -0.09,0 -0.185625,0 -0.28125,-0.006 -1.119375,-0.0281 -2.2275,-0.0787 -3.33,-0.14063 -0.151875,-0.0113 -0.30375,-0.0169 -0.45,-0.0225 -1.06875,-0.0619 -2.12625,-0.14062 -3.18375,-0.23062 -0.18,-0.0113 -0.36,-0.0281 -0.545625,-0.0394 -1.029375,-0.0956 -2.053125,-0.19687 -3.07125,-0.30937 -0.19125,-0.0225 -0.388125,-0.045 -0.585,-0.0675 -1.00125,-0.11813 -2.0025,-0.2475 -2.9925,-0.39375 -0.19125,-0.0225 -0.388125,-0.0506 -0.579375,-0.0787 -0.995625,-0.14625 -1.985625,-0.30375 -2.964375,-0.472503 -0.16875,-0.0281 -0.3375,-0.0619 -0.511875,-0.09 -1.00125,-0.18 -1.99125,-0.36563 -2.975625,-0.56813 -0.12375,-0.0225 -0.2475,-0.0506 -0.37125,-0.0731 -1.011375,-0.21375 -2.012625,-0.433123 -3.00375,-0.663748 -0.02756,-0.0056 -0.05625,-0.01125 -0.08381,-0.01687 -0.04838,-0.01687 -0.09787,-0.02813 -0.147937,-0.03938 -0.710438,-0.16875 -1.416938,-0.343125 -2.11725,-0.52875 -0.234563,-0.05625 -0.468,-0.12375 -0.703125,-0.185625 -0.701438,-0.185625 -1.398375,-0.37125 -2.088563,-0.568125 -0.04444,-0.01687 -0.09056,-0.02812 -0.133875,-0.045 -0.05119,-0.01125 -0.100125,-0.02812 -0.15075,-0.03937 -0.660937,-0.19125 -1.313437,-0.39375 -1.963125,-0.59625 -0.221625,-0.0675 -0.441562,-0.135 -0.662625,-0.208125 -0.55575,-0.174375 -1.109812,-0.36 -1.659937,-0.545625 -0.153,-0.05063 -0.306563,-0.10125 -0.45675,-0.151875 -0.669375,-0.230625 -1.332563,-0.466875 -1.989563,-0.70875 -0.196875,-0.07312 -0.394875,-0.14625 -0.590062,-0.219375 -0.511875,-0.19125 -1.018125,-0.388125 -1.522688,-0.585 -0.181687,-0.07313 -0.36675,-0.14625 -0.547312,-0.219375 -0.638438,-0.253125 -1.270688,-0.5175 -1.895063,-0.781875 -0.160312,-0.07313 -0.32175,-0.140625 -0.482062,-0.21375 -0.496125,-0.21375 -0.988313,-0.433125 -1.474875,-0.658125 -0.189,-0.08437 -0.378,-0.16875 -0.564188,-0.25875 -0.60975,-0.28125 -1.215,-0.568125 -1.808437,-0.86625 -0.09731,-0.045 -0.190688,-0.09562 -0.28575,-0.140625 -0.51525,-0.25875 -1.026563,-0.5175 -1.529438,-0.7875 -0.182812,-0.09562 -0.365625,-0.19125 -0.547312,-0.2925 -0.498938,-0.264375 -0.993938,-0.54 -1.48275,-0.815625 -0.09,-0.05062 -0.182813,-0.10125 -0.272813,-0.151875 -0.558562,-0.315 -1.107,-0.64125 -1.649812,-0.9675 -0.163688,-0.10125 -0.329063,-0.2025 -0.492188,-0.309375 -0.430875,-0.264375 -0.854437,-0.52875 -1.272375,-0.79875 -0.13275,-0.08437 -0.2655,-0.16875 -0.395437,-0.253125 -0.519188,-0.343125 -1.028813,-0.68625 -1.531688,-1.035 -0.138937,-0.09562 -0.272812,-0.196875 -0.410625,-0.2925 -0.3915,-0.275625 -0.781312,-0.5625 -1.163812,-0.84375 -0.141188,-0.106875 -0.282938,-0.21375 -0.423563,-0.315 -0.479812,-0.365625 -0.95175,-0.73125 -1.414125,-1.1025 -0.09731,-0.07312 -0.189562,-0.151875 -0.2835,-0.230625 -0.3825,-0.309375 -0.75825,-0.624375 -1.12725,-0.939375 -0.134437,-0.118125 -0.270562,-0.23625 -0.404437,-0.354375 -0.42525,-0.37125 -0.846,-0.7425 -1.25325,-1.125 -0.036,-0.03375 -0.07313,-0.0675 -0.109125,-0.10125 -0.408375,-0.3825 -0.803813,-0.770625 -1.193063,-1.15875 -0.11925,-0.12375 -0.2385,-0.241875 -0.356625,-0.36 -0.331312,-0.343125 -0.655875,-0.680625 -0.972562,-1.02375 -0.07594,-0.08438 -0.153,-0.163125 -0.22725,-0.241875 -0.372938,-0.410625 -0.736875,-0.826875 -1.09125,-1.24875 -0.09731,-0.1125 -0.194063,-0.23625 -0.291938,-0.34875 -0.278437,-0.3375 -0.550687,-0.675 -0.815062,-1.018125 -0.08719,-0.1125 -0.1755,-0.219375 -0.260438,-0.331875 -0.325125,-0.4275 -0.642937,-0.860625 -0.9483747,-1.299375 -0.07031,-0.09562 -0.137812,-0.196875 -0.206437,-0.298125 -0.24525,-0.36 -0.483188,-0.72 -0.7155,-1.08 -0.07875,-0.12375 -0.15975,-0.253125 -0.239063,-0.376875 -0.2778745,-0.45 -0.548437,-0.9 -0.8043745,-1.355625 -0.032063,-0.05625 -0.06075,-0.1125 -0.09225,-0.16875 -0.2278125,-0.405 -0.4438125,-0.815625 -0.651375,-1.231875 -0.0675,-0.129375 -0.13275,-0.264375 -0.196875,-0.399375 -0.203625,-0.41625 -0.3999375,-0.8325 -0.5855625,-1.254375 -0.023625,-0.05625 -0.050625,-0.1125 -0.074813,-0.16875 -0.203625,-0.466875 -0.3898125,-0.945 -0.5675625,-1.4175 -0.0495,-0.129375 -0.095063,-0.25875 -0.14175,-0.388125 -0.14175,-0.39375 -0.275625,-0.7875 -0.4010625,-1.186875 -0.030938,-0.10125 -0.066937,-0.2025 -0.097875,-0.30375 -0.1456313,-0.48375 -0.2779313,-0.9675 -0.3988688,-1.456875 -0.029531,-0.118125 -0.054675,-0.230625 -0.083475,-0.34875 -0.092812,-0.399375 -0.1775812,-0.79875 -0.254925,-1.198125 -0.023175,-0.12375 -0.049275,-0.253125 -0.072506,-0.376875 -0.087187,-0.495 -0.16515,-0.995625 -0.2262938,-1.490625 -0.011981,-0.08437 -0.016931,-0.16875 -0.027506,-0.253125 -0.049162,-0.4275 -0.087975,-0.860625 -0.1175063,-1.29375 -0.00844,-0.135 -0.018281,-0.275625 -0.025313,-0.410625 -0.0288,-0.511875 -0.046125,-1.0215 -0.046125,-1.535625 v -0.0022 c 0,-15.056438 11.9446866,-28.445063 30.4649996,-36.948938 0.09506,-0.33975 0.203062,-0.674437 0.317812,-1.0035 0.02194,-0.05738 0.04387,-0.113625 0.06469,-0.167625 0.09337,-0.26325 0.190687,-0.518062 0.29475,-0.774562 0.054,-0.136125 0.118125,-0.270563 0.17775,-0.405563 0.07313,-0.167625 0.147375,-0.33525 0.225,-0.501187 0.08438,-0.176063 0.174937,-0.351563 0.264937,-0.524813 0.05962,-0.11475 0.11925,-0.231187 0.18,-0.345375 0.110813,-0.201375 0.225,-0.4005 0.34425,-0.599625 0.045,-0.07706 0.09281,-0.155812 0.140625,-0.234 0.135,-0.219937 0.2745,-0.435375 0.4185,-0.651375 0.03206,-0.04781 0.06525,-0.09788 0.100125,-0.145125 0.159188,-0.233437 0.323438,-0.462937 0.494438,-0.689062 0.018,-0.0225 0.036,-0.04725 0.05344,-0.07144 0.187313,-0.241875 0.376875,-0.480375 0.57375,-0.713812 l 0.0022,-0.0011 c 0.710438,-0.842625 1.494563,-1.6166251 2.34225,-2.3158131 0.0028,0 0.0023,-0.0011 0.0034,-0.0011 1.157063,-0.954 2.429438,-1.7701875 3.794625,-2.4114375 0.02531,-0.010125 0.0495,-0.023625 0.07369,-0.035437 0.372937,-0.1715625 0.750375,-0.3358125 1.135687,-0.4820625 0.0034,-0.00225 0.0073,-0.0045 0.01125,-0.00787 5.657625,-2.1409875 13.005563,-1.42335 18.394313,1.6284375 0.185625,-0.00394 0.376875,-0.00394 0.5625,0 0.03375,-0.029813 0.07313,-0.052875 0.106875,-0.081563 0.286875,-0.2401875 0.585,-0.4719375 0.894375,-0.691875 0.118125,-0.083812 0.241875,-0.163125 0.365625,-0.244125 0.23625,-0.1614375 0.478125,-0.316125 0.725625,-0.464625 0.135,-0.07875 0.27,-0.156375 0.410625,-0.232875 0.25875,-0.1456875 0.523125,-0.28125 0.793125,-0.4123125 0.118125,-0.060187 0.241875,-0.1231875 0.365625,-0.18 0.793125,-0.3628125 1.614375,-0.6670687 2.46375,-0.9096187 0.129375,-0.037294 0.25875,-0.065925 0.388125,-0.1010813 0.30375,-0.07875 0.6075,-0.1513687 0.91125,-0.215325 0.151875,-0.030263 0.298125,-0.060469 0.444375,-0.087919 0.315,-0.05625 0.624375,-0.1020375 0.939375,-0.1428188 0.135,-0.01755 0.264375,-0.036844 0.399375,-0.051638 2.7675,-0.2917687 5.630625,0.044156 8.2575,1.1129063 0.208125,0.087244 0.421875,0.1811812 0.64125,0.2846812 0.135,0.061313 0.27,0.1310625 0.405,0.1996875 0.09,0.043875 0.174375,0.08325 0.25875,0.1288125 0.163125,0.0855 0.331875,0.1794375 0.500625,0.2745 0.06188,0.032625 0.118125,0.064125 0.174375,0.09675 0.19125,0.106875 0.376875,0.2188125 0.568125,0.33525 0.045,0.023625 0.08437,0.0495 0.12375,0.075375 0.2025,0.1254375 0.410625,0.257625 0.61875,0.392625 0.02813,0.018562 0.05625,0.036563 0.08438,0.056813 0.219375,0.1411875 0.43875,0.2925 0.658125,0.4426875 0.01687,0.014063 0.03937,0.025875 0.05625,0.039938 0.230625,0.1603125 0.46125,0.325125 0.691875,0.4955625 0.0056,0.00675 0.01687,0.011812 0.02813,0.018562 0.23625,0.1755 0.478125,0.3560625 0.714375,0.5439375 h 0.0056 c 0.045,0.03825 0.09562,0.077063 0.14625,0.1164375 0.09562,0.073688 0.19125,0.14625 0.286875,0.221625 13.336876,0.6322503 25.728756,3.2821884 36.326256,7.4390634 0.8775,-0.659813 1.42875,-0.935438 1.70437,-1.051313 C 114.58677,10.599047 101.76739,7.7994844 88.284265,7.1042344 86.14114,5.4465469 84.08239,4.1907657 82.333015,3.4777969 80.04364,2.5454532 77.596765,2.0978719 75.16114,2.1110907 Z M 86.439096,15.137128 c 1.648125,1.294875 3.33,2.483438 4.798125,3.095438 1.0575,0.118125 2.41875,0.33075 3.99375,0.576 5.461879,0.855 13.561879,2.114437 20.047499,1.284187 -8.64,-2.7765 -18.421874,-4.524187 -28.839374,-4.955625 z m -46.767937,7.869375 c -0.765563,0.327375 -1.512563,0.6705 -2.252813,1.017 -0.137812,0.06469 -0.277875,0.128813 -0.414562,0.194625 -0.743063,0.354375 -1.477125,0.716063 -2.19375,1.089 -0.03037,0.01687 -0.06019,0.03094 -0.09,0.04725 -0.474188,0.246375 -0.9315,0.502875 -1.393313,0.756563 -0.2475,0.136687 -0.502312,0.268312 -0.747,0.406687 -0.01294,0.0073 -0.02644,0.01462 -0.03937,0.02194 -0.05175,0.02925 -0.104062,0.05738 -0.15525,0.08663 -0.0045,0.0028 -0.0096,0.0051 -0.01406,0.0079 -0.653625,0.372375 -1.292625,0.752062 -1.920375,1.139062 l -0.0011,0.0011 c -11.606063,7.155 -18.714375,16.7535 -18.714375,27.312188 0,22.120312 31.182187,40.047187 69.64875,40.047187 21.988129,0 41.596879,-5.86125 54.359999,-15.01875 -1.0575,-0.27 -3.41437,-0.28125 -5.68125,-0.253125 -4.66875,5.169375 -15.50812,5.1525 -20.61562,4.82625 -0.36563,0.5175 -0.855,0.939375 -1.41188,1.220625 -3.15,1.569375 -11.109374,2.806875 -17.898749,2.2275 -0.30375,0.736875 -0.961875,1.62 -2.458125,2.075625 -10.040625,3.06 -24.699375,2.705625 -30.06,-0.669375 -11.676938,1.0125 -30.4425,-6.255 -34.230375,-20.205 -3.169125,-1.906875 -6.221813,-5.8725 -7.191563,-7.65 -0.320062,-0.579375 -0.775687,-1.659375 -0.775687,-3.031875 0,-1.288125 0.405,-2.829375 1.710562,-4.467937 0.975938,-1.217813 3.435188,-3.1905 5.4855,-4.4415 -0.554062,-1.535063 -1.05075,-3.264188 -1.26,-4.437563 -0.08663,-0.477562 -0.125437,-0.943875 -0.125437,-1.39725 0,-2.474437 1.236375,-4.554 3.47175,-5.718375 1.112625,-0.581625 2.97,-1.124437 4.951687,-1.472062 -0.2925,-0.666563 -0.520875,-1.292625 -0.6615,-1.865813 -0.155812,-0.613125 -0.2295,-1.23525 -0.2295,-1.847812 0,-2.158313 0.916313,-4.218188 2.5245,-5.471438 1.175063,-0.911812 4.431375,-2.620125 8.430188,-3.605625 -0.02419,-0.3105 -0.0405,-0.615937 -0.04556,-0.923625 z"
       fill="#003087"
       style="stroke-width:0.5625" /><path
       inkscape:connector-curvature="0"
       id="path20"
       d="m 54.505409,19.27201 c -1.581188,-0.0135 -3.147188,0.964124 -4.567501,2.464312 -0.728437,0.768937 -0.606937,1.418625 0.486001,0.9315 1.024312,-0.455062 2.304562,-1.092375 3.034125,-0.851062 -1.820813,5.948437 -0.486563,11.654437 5.824687,11.773687 -1.333125,1.456313 -4.003312,1.697625 -5.70375,1.697625 -1.699312,0 -1.608187,0.761062 -0.120937,0.97425 5.948437,0.851063 11.286562,-1.5795 15.089062,-6.434437 l 2.43,-0.486 c 1.62,-0.482063 1.108125,-1.693688 -0.163125,-1.455188 -2.5875,0.485438 -5.0175,0.484875 -8.74125,-2.429437 -2.295,-1.794938 -3.88125,-4.851563 -5.985,-5.823563 C 55.560659,19.39126 55.031909,19.27651 54.505409,19.27201 Z m 80.415001,2.073374 c -0.37125,0.0096 -0.75375,0.04725 -1.11937,0.107438 -1.15313,0.191812 -3.825,1.951313 -4.60688,2.912625 -1.09687,1.333125 -0.36562,2.550375 1.215,2.304563 1.575,-0.24075 3.7575,-2.061 4.365,-2.668501 0.6075,-0.606375 0.9675,-0.846562 2.1825,0.123188 1.215,0.970875 3.40313,2.062125 5.95125,2.062125 1.575,0 1.575,-0.7155 0.11813,-0.970313 -2.05875,-0.3645 -4.005,-0.972 -5.45625,-3.034125 -0.45563,-0.640687 -1.52438,-0.86625 -2.64938,-0.837 z"
       fill="#003087"
       style="stroke-width:0.5625" /><path
       inkscape:connector-curvature="0"
       id="path22"
       d="m 55.522408,23.516072 c -1.942874,4.575375 -0.326812,7.848562 2.950313,8.376187 2.77875,0.4455 5.056875,0.119813 6.6375,-2.307375 0,0 -2.5875,-1.009687 -3.200625,-1.616062 -0.6075,0.96975 -2.019375,1.819687 -3.031875,1.98 -1.344375,0.215438 -1.569375,-0.31725 -0.68625,-1.130625 0.5625,-0.52875 1.29375,-1.740375 1.17,-2.548687 -0.43875,-0.609188 -2.86875,-2.552063 -3.839063,-2.753438 z m 104.861252,9.1035 c -0.7875,0.06863 -1.45125,0.8055 -2.05875,1.249875 -0.6975,0.513 -1.71,0.63 -2.54812,0.507937 -0.20813,2.248313 -1.38938,4.474688 -2.46938,6.415875 -0.50625,0.918001 -1.1025,1.771313 -1.6425,2.66625 -0.69187,1.150875 0.46125,1.161563 1.26,0.7515 2.115,-1.099125 3.71813,-3.327187 4.95563,-5.295375 1.13062,-1.792125 2.50312,-4.100625 2.50312,-6.296062 z m -9.99562,0.944437 c -0.7425,0 -1.46813,0.05456 -2.14313,0.149625 0.405,2.190375 -0.15187,4.5405 -0.79875,6.626813 -0.66937,2.157187 -1.56375,4.260937 -2.64937,6.238125 -0.42188,0.758812 -0.3375,1.557563 0.68062,1.090125 0.77063,-0.352688 1.4175,-0.981563 1.99125,-1.591313 1.47375,-1.567124 2.6775,-3.411 3.72375,-5.288624 1.17563,-2.111626 2.18813,-4.361626 2.76188,-6.712876 -1.07438,-0.359437 -2.33438,-0.511312 -3.56625,-0.511875 z m -4.545,0.266063 c -0.0619,5.62e-4 -0.14063,0.0084 -0.23063,0.01631 -0.7425,0.06694 -1.4625,0.282938 -2.16,0.529876 -1.38375,0.492749 -2.54812,1.218374 -3.78,2.005874 -0.82687,0.531001 -1.67625,1.035563 -2.57062,1.4445 -0.42188,0.1935 -0.84938,0.365626 -1.29375,0.498938 0.0787,0.37125 0.14625,0.750375 0.19687,1.12725 0.23625,1.746 0.23625,3.52575 0.14063,5.282438 -0.0844,1.537312 -0.24188,3.08475 -0.55125,4.59675 -0.11813,0.5715 -0.46688,1.374187 -0.0731,1.904624 0.34313,0.469688 1.06313,0.269438 1.50188,0.07481 1.60312,-0.714375 2.98687,-2.324813 4.10062,-3.625313 1.07438,-1.250437 1.91813,-2.629687 2.64375,-4.107937 1.25438,-2.567812 2.50875,-5.612625 2.46938,-8.521875 -0.006,-0.297 -0.0281,-0.59625 -0.09,-0.889875 -0.0563,-0.279562 -0.11813,-0.338625 -0.30375,-0.336375 z m -42.95813,6.107062 c -0.405,0.01125 -0.81,0.072 -1.20375,0.158625 -2.109374,0.462375 -4.443752,1.6065 -5.979377,3.144938 1.09125,0.94725 1.98,2.18025 2.255625,3.62025 0.10125,0.505687 0.12375,1.027687 0.06188,1.540125 -0.045,0.372937 -0.146249,0.9315 0.208125,1.203187 0.804373,0.6165 2.379387,-0.75375 2.908137,-1.279125 0.95062,-0.942187 1.67625,-2.115 2.21062,-3.336187 0.585,-1.332563 0.97313,-2.795063 0.945,-4.256438 -0.006,-0.345937 0.0619,-0.5715 -0.29251,-0.673312 -0.23062,-0.06694 -0.47249,-0.102375 -0.70874,-0.115313 -0.13501,-0.0084 -0.27,-0.01013 -0.405,-0.0068 z m 28.79438,0.511313 c -1.125,1.128375 -2.84625,1.737562 -4.33125,2.230875 -1.47938,0.494438 -3.07125,0.945562 -4.64625,0.9855 0.88875,1.722937 0.92812,3.99825 0.77625,5.888812 -0.0563,0.684 -0.43313,1.521 -0.21375,2.185313 0.315,0.999562 1.52437,0.464625 2.10937,0.05569 3.57188,-2.498062 5.76,-7.112812 6.30563,-11.346187 z m -22.02188,0.485437 c 0.59063,1.684125 0.55688,3.639375 0.43313,5.396625 -0.045,0.707063 -0.1125,1.432688 -0.2925,2.120063 -0.1575,0.604688 -0.36563,1.343812 0.42187,1.591875 1.45688,0.460687 3.5325,-1.191938 4.5675,-2.033437 1.485,-1.197563 2.89688,-2.793375 3.30188,-4.706438 -2.88563,-0.482625 -5.65875,-1.473187 -8.43188,-2.368688 z m -18.450002,4.613063 c -0.86625,0.8235 -1.963125,1.4355 -2.998125,2.019375 -1.130625,0.637875 -2.295,1.23975 -3.493125,1.743188 0.804375,1.2375 1.310625,2.904187 1.209375,4.390312 -0.03375,0.503437 -0.478125,1.295438 0.09,1.6425 0.6525,0.405 1.4175,-0.325687 1.850625,-0.738 2.30625,-2.193187 4.010625,-5.839312 3.34125,-9.057375 z m -36.604125,1.954687 c -1.621687,0.0096 -3.513937,0.331876 -4.782937,1.26 0.251438,2.232563 1.23075,4.61475 3.066187,6.008063 0.527063,0.4005 1.861313,1.2195 2.377125,0.390375 0.277875,-0.448875 0.11025,-1.1205 0.14625,-1.618313 0.04444,-0.624937 0.162,-1.244812 0.32625,-1.850062 0.315,-1.171688 0.793125,-2.300625 1.378125,-3.360937 0.16875,-0.300376 0.185625,-0.320063 -0.129375,-0.466875 -0.1575,-0.07256 -0.320625,-0.1305 -0.489375,-0.174376 -0.39375,-0.106874 -0.81,-0.154687 -1.216125,-0.173812 -0.21825,-0.01069 -0.444375,-0.01575 -0.676125,-0.01406 z m 10.324125,2.233126 c 0.1125,1.487812 -0.63,3.105562 -1.305,4.388062 -0.2475,0.468563 -0.838125,1.08225 -0.854999,1.618875 -0.02813,0.680625 0.883124,0.59625 1.316249,0.495 2.59875,-0.597938 5.79375,-2.445187 6.975001,-4.92525 -2.008126,-0.168188 -4.303126,-0.710438 -6.131251,-1.576687 z m 15.66,0.970312 c -1.738125,0.631125 -3.915,1.002937 -5.765625,0.84825 0.196875,1.413 0.01125,2.941312 -0.32625,4.31775 -0.140625,0.568125 -0.43875,1.029375 -0.613125,1.569375 -0.196875,0.624375 0.43875,0.765 0.91125,0.635625 1.524375,-0.41625 2.998125,-1.929375 3.94875,-3.130313 0.95625,-1.207125 1.738125,-2.676375 1.845,-4.240687 z m 13.95,2.80575 c -0.337499,0.0067 -0.5625,0.239625 -0.41625,0.8955 0.4275,1.971 -0.770625,4.72725 -2.30625,5.947875 1.445625,-0.388125 3.076876,-0.315 4.550625,-0.174375 1.726875,0.163125 3.639377,0.500625 5.096257,1.5075 -0.21938,-0.8775 -0.75938,-1.69875 -1.24313,-2.4525 -0.641254,-0.984375 -1.344374,-1.92375 -2.109377,-2.82375 -0.725625,-0.864563 -1.501874,-1.762312 -2.41875,-2.435625 -0.343125,-0.250875 -0.81,-0.471375 -1.153125,-0.464625 z m 16.093132,2.92275 c -0.32625,0.0056 -0.59063,0.41625 -0.73125,0.950625 -0.19125,0.691875 -0.53438,1.35 -0.91688,1.963125 -0.93375,1.501875 -2.33437,3.020625 -4.12312,3.43125 1.35,0.500625 2.68312,1.02375 3.99937,1.5975 1.4175,0.613125 2.91938,1.26 4.13438,2.2275 0.37687,-1.670625 0.0225,-3.549375 -0.30938,-5.1975 -0.2925,-1.4625 -0.59062,-3.2175 -1.42312,-4.494375 -0.21938,-0.343125 -0.43875,-0.48375 -0.63,-0.478125 z m -59.793756,1.94625 c -0.918563,0.08437 -1.772438,1.4625 -2.151,2.0925 -0.72675,1.220625 -1.276313,2.638125 -1.351125,4.066875 1.989562,-0.568125 4.6125,-0.95625 6.615,-0.241875 -0.897188,-0.804375 -1.436063,-2.05875 -1.798875,-3.18375 -0.156938,-0.48375 -0.297,-0.99 -0.324,-1.49625 -0.02306,-0.455625 -0.09,-1.018125 -0.593438,-1.1925 -0.13275,-0.045 -0.264937,-0.06188 -0.396562,-0.045 z m 29.708437,0.14625 c -0.365625,-0.01687 -0.6075,0.23625 -0.500625,1.040625 0.135,1.040625 -0.118125,2.176875 -0.354375,3.18375 -0.27,1.13625 -0.624375,2.34 -1.265625,3.324375 2.008125,-1.58625 4.471875,-2.435625 6.778125,-3.47625 -0.63,-1.31625 -1.96875,-2.35125 -3.0825,-3.24 -0.421875,-0.3375 -1.1025,-0.81 -1.575,-0.8325 z m -21.324375,0.286875 c -0.1125,0.0056 -0.241875,0.045 -0.399375,0.118125 -0.81,0.39375 -1.299375,1.5075 -1.6425,2.278125 -0.50625,1.125 -0.9,2.390625 -0.860625,3.63375 0.714375,0.219375 1.400625,0.585 2.05875,0.928125 0.928125,0.48375 1.839375,1.006875 2.71125,1.591875 0.57375,0.376875 1.24875,0.79875 1.659375,1.366875 0,-1.02375 -0.646875,-2.16 -1.215,-2.975625 -0.945,-1.366875 -1.8225,-3.36375 -1.816875,-5.04 0.0056,-0.5175 0.27,-1.9575 -0.495,-1.90125 z m 68.096254,0.855 c -0.50625,0.0675 -0.9225,0.86625 -1.09687,1.231875 -0.7875,1.6875 -2.34563,2.998125 -3.8475,4.03875 -1.61438,1.11375 -3.42001,2.053125 -5.31,2.57625 1.70437,0.61875 3.59437,0.781875 5.38875,0.91125 1.0125,0.0675 2.01937,0.106875 3.03187,0.12375 0.42188,0.0056 0.83813,0.01125 1.26,0.0056 0.34313,0 0.9,0.135 0.99,-0.225 0.50625,-2.14875 0.45563,-4.41 0.38813,-6.60375 -0.0169,-0.523125 0.10687,-1.83375 -0.57938,-2.041875 -0.0731,-0.0225 -0.15188,-0.02813 -0.225,-0.01688 z m 11.8125,0.174375 c -0.585,-0.01125 -1.06875,0.9675 -1.24875,1.36125 -0.69187,1.468125 -1.99125,2.745 -3.14438,3.841875 -1.42312,1.355625 -3.03187,2.694375 -4.87125,3.4425 1.82251,0.2475 3.69,0.298125 5.52375,0.241875 0.91688,-0.02813 1.82813,-0.09 2.73376,-0.219375 0.38812,-0.05062 0.77062,-0.12375 1.14749,-0.21375 0.48938,-0.118125 0.46126,-0.264375 0.53438,-0.7425 0.28687,-1.850625 0.43312,-3.785625 0.28687,-5.653125 -0.0506,-0.6075 -0.0956,-1.65375 -0.70312,-1.985625 -0.09,-0.05062 -0.17438,-0.07312 -0.25875,-0.07312 z m 10.2375,1.546875 c -0.42187,0.0675 -0.585,0.75375 -0.75938,1.06875 -0.4275,0.759375 -1.02375,1.445625 -1.63124,2.08125 -0.0675,0.883125 -0.36,1.76625 -0.60188,2.61 1.13063,0.05625 2.61562,-0.07875 3.54938,-0.781875 0.87187,-0.64125 0.71437,-2.655 0.5175,-3.5775 -0.0956,-0.478125 -0.32625,-1.254375 -0.8775,-1.389375 -0.0731,-0.01687 -0.135,-0.0225 -0.19688,-0.01125 z m -5.34937,0.10125 c -0.0675,0.0056 -0.135,0.0225 -0.21375,0.05062 -0.80438,0.30375 -1.36688,1.603125 -1.86188,2.2725 0.0619,1.3275 -0.14062,2.68875 -0.30375,4.005 0.97875,0.05625 1.99688,-0.12375 2.96438,-0.30375 0.25312,-0.045 0.495,-1.288125 0.54562,-1.5075 0.14063,-0.63 0.21938,-1.276875 0.21375,-1.918125 -0.0112,-0.68625 -0.32062,-2.7225 -1.34437,-2.59875 z m -75.369384,0.163125 c -0.556875,0.01687 -0.7425,0.6075 -0.624375,1.06875 0.28125,1.040625 -0.315,2.390625 -0.815625,3.27375 -0.585,1.04625 -1.580625,1.468125 -2.379375,2.300625 -0.208125,0.21375 -0.3825,0.455625 -0.500625,0.73125 -0.18,0.41625 -0.01687,0.50625 0.320625,0.770625 0.444375,0.343125 0.95625,0.601875 1.49625,0.759375 1.040625,0.309375 2.16,0.275625 3.2175,0.0675 0.489375,-0.10125 2.53125,-0.50625 2.559375,-1.1025 0.06188,-1.17 -0.118125,-2.356875 -0.421875,-3.4875 -0.315,-1.198125 -0.781875,-2.401875 -1.524375,-3.403125 -0.30375,-0.421875 -0.748125,-0.99 -1.3275,-0.97875 z"
       fill="#ffffff"
       style="stroke-width:0.5625" /></g></svg>
